# xmcd
#
# Track frame offsets:
#	150
#	15943
#	27319
#	42806
#	60024
#	69410
#	87638
#	114375
#	122179
#	134466
#	147693
#	165359
#
# Disc length: 2766 seconds
#
# Revision: 1
# Processed by: cddbd v1.5.2PL0 Copyright (c) Steve Scherf et al.
# Submitted via: audiograbber 1.83.01
#
DISCID=9b0acc0c
DTITLE=Big Walker - Root Walking
DYEAR=2011
DGENRE=American Blues and Roots
TTITLE0=It's Hard
TTITLE1=Raise a Ruckus
TTITLE2=Wild Black Bill
TTITLE3=Run Night Run
TTITLE4=The Hypocrite Blues
TTITLE5=Can't Take No Train
TTITLE6=Midnight Special
TTITLE7=You Got A Home In That Rock
TTITLE8=Papa Guede
TTITLE9=Devil's Cloth
TTITLE10=Thirteenth Full Moon
TTITLE11=Slave
EXTD=Afro-American poems from 17-1800 put to music and original songs
EXTT0=
EXTT1=
EXTT2=
EXTT3=
EXTT4=
EXTT5=
EXTT6=
EXTT7=
EXTT8=
EXTT9=
EXTT10=
EXTT11=
PLAYORDER=
